# xmcd
#
# Track frame offsets: 
#        180
#        14851
#        22498
#        32771
#        43211
#        52851
#        65877
#        74728
#        85223
#        97081
#        106323
#        117468
#        129336
#        140083
#        150122
#        161824
#        174017
#        184145
#        196369
#        207519
#        217518
#        227554
#        239749
#        251331
#        262057
#
# Disc length: 3624 seconds
#
# Revision: 3
# Processed by: cddbd v1.5.1PL2 Copyright (c) Steve Scherf et al.
# Submitted via: ExactAudioCopy v0.95b2
#
DISCID=770e2619
DTITLE=Various Artist - Rare and Unreleased Group Harmony Gems Volume 01
DYEAR=1900
DGENRE=Doo Wop
TTITLE0=The Contenders - Whenever I Get Lonely
TTITLE1=The Del-Larks - Bubble Gum Doll
TTITLE2=The Lonely Guys - The Way You Look Tonight
TTITLE3=The Marquees - Ecstasy
TTITLE4=The Royal Teentones - Teenage Joy
TTITLE5=The Love Larks - More And More
TTITLE6=The Sonics - In A Dream
TTITLE7=The Spices - Tell Me Little Girl
TTITLE8=The Poets - Never Let You Go
TTITLE9=The Bel Larks - Get Married In June
TTITLE10=The Capitols - I've Got A Girl
TTITLE11=The Elegants - Twinkle Little Star
TTITLE12=The Academics - I Often Wonder
TTITLE13=The Supremes - Snap, Crackle And Pop
TTITLE14=The Fantastics - My Girls
TTITLE15=The Four Deans - Mr Echo
TTITLE16=The Five Secrets - Wedding Bells
TTITLE17=The Golden Bells - Pretty Girl
TTITLE18=The Manhattens - Why Should I Cry
TTITLE19=Joey Dee and The Starliters - The Girl I Walk To School
TTITLE20=The El Venos - Are You An Angel
TTITLE21=The Eltones - Honest I Do
TTITLE22=Will Wendell and The Aktones - Lonely Blue Boy
TTITLE23=The La Salles - Chopsticks
TTITLE24=The Four Wheels - Uh Hum (The Night)
EXTD=
EXTT0=
EXTT1=
EXTT2=
EXTT3=
EXTT4=
EXTT5=
EXTT6=
EXTT7=
EXTT8=
EXTT9=
EXTT10=
EXTT11=
EXTT12=
EXTT13=
EXTT14=
EXTT15=
EXTT16=
EXTT17=
EXTT18=
EXTT19=
EXTT20=
EXTT21=
EXTT22=
EXTT23=
EXTT24=
PLAYORDER=
